<mxfile host="Electron" agent="Mozilla/5.0 (Windows NT 10.0; Win64; x64) AppleWebKit/537.36 (KHTML, like Gecko) draw.io/27.0.9 Chrome/134.0.6998.205 Electron/35.4.0 Safari/537.36" version="27.0.9">
  <diagram name="Page-1" id="NPLavSzPTFwuzmdZLNRi">
    <mxGraphModel dx="3096" dy="2204" grid="1" gridSize="10" guides="1" tooltips="1" connect="1" arrows="1" fold="1" page="1" pageScale="1" pageWidth="1169" pageHeight="827" math="0" shadow="0">
      <root>
        <mxCell id="0" />
        <mxCell id="1" parent="0" />
        <mxCell id="CMagMuN_N-w_v8r2wmOn-2" value="&lt;h1 style=&quot;direction: ltr; unicode-bidi: embed;&quot;&gt;&lt;span style=&quot;font-size: 22pt; line-height: 31.3867px;&quot;&gt;#3&lt;/span&gt;&lt;/h1&gt;&lt;h1 style=&quot;direction: ltr; unicode-bidi: embed;&quot;&gt;&lt;span style=&quot;background-color: transparent; color: red; font-size: 20pt; font-weight: normal;&quot;&gt;This flowchart for a program that asks the&amp;nbsp;&lt;/span&gt;&lt;span style=&quot;color: red; font-size: 20pt; background-color: transparent; font-weight: normal;&quot;&gt;user to&lt;/span&gt;&lt;u style=&quot;color: red; font-size: 20pt; background-color: transparent; font-weight: normal;&quot;&gt;&amp;nbsp;enter&amp;nbsp;&lt;/u&gt;&lt;/h1&gt;&lt;h1 style=&quot;direction: ltr; unicode-bidi: embed;&quot;&gt;&lt;u style=&quot;background-color: transparent; color: red; font-size: 20pt; font-weight: normal;&quot;&gt;a number,&lt;/u&gt;&lt;span style=&quot;background-color: transparent; color: red; font-size: 20pt; font-weight: normal;&quot;&gt;&amp;nbsp;than checks if the user to enter the number, is odd or even, and&amp;nbsp;&lt;/span&gt;&lt;u style=&quot;background-color: transparent; color: red; font-size: 20pt; font-weight: normal;&quot;&gt;prints&amp;nbsp;&lt;/u&gt;&lt;span style=&quot;background-color: transparent; color: red; font-size: 20pt; font-weight: normal;&quot;&gt;the result on the screen.&lt;/span&gt;&lt;/h1&gt;" style="whiteSpace=wrap;html=1;aspect=fixed;align=left;strokeColor=default;fillColor=#000000;strokeWidth=8;gradientColor=none;spacingTop=5;spacingLeft=5;spacingBottom=5;spacingRight=5;spacing=5;" parent="1" vertex="1">
          <mxGeometry x="-19" y="2" width="640" height="640" as="geometry" />
        </mxCell>
        <mxCell id="CMagMuN_N-w_v8r2wmOn-3" value="End" style="ellipse;whiteSpace=wrap;html=1;fillColor=#FF0000;" parent="1" vertex="1">
          <mxGeometry x="830" y="800" width="120" height="80" as="geometry" />
        </mxCell>
        <mxCell id="CMagMuN_N-w_v8r2wmOn-9" value="" style="edgeStyle=orthogonalEdgeStyle;rounded=0;orthogonalLoop=1;jettySize=auto;html=1;" parent="1" source="CMagMuN_N-w_v8r2wmOn-4" target="CMagMuN_N-w_v8r2wmOn-5" edge="1">
          <mxGeometry relative="1" as="geometry" />
        </mxCell>
        <mxCell id="CMagMuN_N-w_v8r2wmOn-4" value="&lt;font style=&quot;font-size: 20px;&quot;&gt;Start&lt;/font&gt;" style="ellipse;whiteSpace=wrap;html=1;fillColor=#00FF00;" parent="1" vertex="1">
          <mxGeometry x="830" width="120" height="80" as="geometry" />
        </mxCell>
        <mxCell id="CMagMuN_N-w_v8r2wmOn-10" value="" style="edgeStyle=orthogonalEdgeStyle;rounded=0;orthogonalLoop=1;jettySize=auto;html=1;" parent="1" source="CMagMuN_N-w_v8r2wmOn-5" target="CMagMuN_N-w_v8r2wmOn-6" edge="1">
          <mxGeometry relative="1" as="geometry" />
        </mxCell>
        <mxCell id="CMagMuN_N-w_v8r2wmOn-5" value="&lt;font style=&quot;&quot;&gt;&lt;font style=&quot;font-size: 18px;&quot;&gt;Read: use Num&lt;/font&gt;&lt;br&gt;&lt;/font&gt;" style="shape=parallelogram;perimeter=parallelogramPerimeter;whiteSpace=wrap;html=1;fixedSize=1;fillColor=#B266FF;" parent="1" vertex="1">
          <mxGeometry x="830" y="130" width="120" height="60" as="geometry" />
        </mxCell>
        <mxCell id="CMagMuN_N-w_v8r2wmOn-21" value="" style="edgeStyle=orthogonalEdgeStyle;rounded=0;orthogonalLoop=1;jettySize=auto;html=1;" parent="1" source="CMagMuN_N-w_v8r2wmOn-6" target="CMagMuN_N-w_v8r2wmOn-14" edge="1">
          <mxGeometry relative="1" as="geometry" />
        </mxCell>
        <mxCell id="CMagMuN_N-w_v8r2wmOn-6" value="&lt;span style=&quot;text-align: left;&quot;&gt;&lt;font style=&quot;font-size: 15px;&quot;&gt;Result = Num mod 2&lt;/font&gt;&lt;/span&gt;" style="rounded=0;whiteSpace=wrap;html=1;fillColor=#FF8000;" parent="1" vertex="1">
          <mxGeometry x="830" y="260" width="120" height="60" as="geometry" />
        </mxCell>
        <mxCell id="CMagMuN_N-w_v8r2wmOn-18" style="edgeStyle=orthogonalEdgeStyle;rounded=0;orthogonalLoop=1;jettySize=auto;html=1;entryX=1;entryY=0.5;entryDx=0;entryDy=0;" parent="1" source="CMagMuN_N-w_v8r2wmOn-7" target="CMagMuN_N-w_v8r2wmOn-13" edge="1">
          <mxGeometry relative="1" as="geometry">
            <Array as="points">
              <mxPoint x="1040" y="660" />
            </Array>
          </mxGeometry>
        </mxCell>
        <mxCell id="CMagMuN_N-w_v8r2wmOn-7" value="&lt;font&gt;&lt;span style=&quot;color: rgb(255, 255, 255); text-align: left;&quot;&gt;&lt;font style=&quot;&quot;&gt;Print&amp;nbsp;&lt;/font&gt;&lt;/span&gt;&lt;span style=&quot;color: rgb(255, 255, 255); text-align: left;&quot;&gt;&quot;Even&quot;&lt;/span&gt;&lt;span style=&quot;color: rgb(255, 255, 255); text-align: left;&quot;&gt;&lt;font style=&quot;&quot;&gt;&amp;nbsp;&lt;/font&gt;&lt;/span&gt;&lt;/font&gt;" style="shape=parallelogram;perimeter=parallelogramPerimeter;whiteSpace=wrap;html=1;fixedSize=1;fillColor=#3399FF;fontColor=#ffffff;strokeColor=#001DBC;" parent="1" vertex="1">
          <mxGeometry x="980" y="520" width="120" height="60" as="geometry" />
        </mxCell>
        <mxCell id="CMagMuN_N-w_v8r2wmOn-8" style="edgeStyle=orthogonalEdgeStyle;rounded=0;orthogonalLoop=1;jettySize=auto;html=1;exitX=0.5;exitY=1;exitDx=0;exitDy=0;" parent="1" source="CMagMuN_N-w_v8r2wmOn-6" target="CMagMuN_N-w_v8r2wmOn-6" edge="1">
          <mxGeometry relative="1" as="geometry" />
        </mxCell>
        <mxCell id="CMagMuN_N-w_v8r2wmOn-17" style="edgeStyle=orthogonalEdgeStyle;rounded=0;orthogonalLoop=1;jettySize=auto;html=1;entryX=0;entryY=0.5;entryDx=0;entryDy=0;exitX=0.5;exitY=1;exitDx=0;exitDy=0;" parent="1" source="CMagMuN_N-w_v8r2wmOn-12" target="CMagMuN_N-w_v8r2wmOn-13" edge="1">
          <mxGeometry relative="1" as="geometry">
            <mxPoint x="720" y="600" as="sourcePoint" />
            <Array as="points">
              <mxPoint x="720" y="660" />
            </Array>
          </mxGeometry>
        </mxCell>
        <mxCell id="CMagMuN_N-w_v8r2wmOn-12" value="&lt;span style=&quot;text-align: left;&quot;&gt;&lt;font&gt;Print &quot;ODD&quot;&lt;/font&gt;&lt;/span&gt;" style="shape=parallelogram;perimeter=parallelogramPerimeter;whiteSpace=wrap;html=1;fixedSize=1;fillColor=#3399FF;" parent="1" vertex="1">
          <mxGeometry x="660" y="521" width="120" height="60" as="geometry" />
        </mxCell>
        <mxCell id="CMagMuN_N-w_v8r2wmOn-20" style="edgeStyle=orthogonalEdgeStyle;rounded=0;orthogonalLoop=1;jettySize=auto;html=1;entryX=0.5;entryY=0;entryDx=0;entryDy=0;" parent="1" source="CMagMuN_N-w_v8r2wmOn-13" target="CMagMuN_N-w_v8r2wmOn-3" edge="1">
          <mxGeometry relative="1" as="geometry" />
        </mxCell>
        <mxCell id="CMagMuN_N-w_v8r2wmOn-13" value="" style="ellipse;whiteSpace=wrap;html=1;aspect=fixed;strokeWidth=5;" parent="1" vertex="1">
          <mxGeometry x="850" y="620" width="80" height="80" as="geometry" />
        </mxCell>
        <mxCell id="CMagMuN_N-w_v8r2wmOn-15" style="edgeStyle=orthogonalEdgeStyle;rounded=0;orthogonalLoop=1;jettySize=auto;html=1;entryX=0.5;entryY=0;entryDx=0;entryDy=0;" parent="1" source="CMagMuN_N-w_v8r2wmOn-14" target="CMagMuN_N-w_v8r2wmOn-7" edge="1">
          <mxGeometry relative="1" as="geometry" />
        </mxCell>
        <mxCell id="CMagMuN_N-w_v8r2wmOn-16" style="edgeStyle=orthogonalEdgeStyle;rounded=0;orthogonalLoop=1;jettySize=auto;html=1;entryX=0.5;entryY=0;entryDx=0;entryDy=0;" parent="1" source="CMagMuN_N-w_v8r2wmOn-14" target="CMagMuN_N-w_v8r2wmOn-12" edge="1">
          <mxGeometry relative="1" as="geometry" />
        </mxCell>
        <mxCell id="CMagMuN_N-w_v8r2wmOn-14" value="&lt;font&gt;If is&amp;nbsp;&lt;/font&gt;&lt;div&gt;&lt;font&gt;(Num = 0)&amp;nbsp;&lt;/font&gt;&lt;/div&gt;" style="rhombus;whiteSpace=wrap;html=1;fillColor=#FF6666;" parent="1" vertex="1">
          <mxGeometry x="850" y="400" width="80" height="80" as="geometry" />
        </mxCell>
        <mxCell id="CMagMuN_N-w_v8r2wmOn-24" value="Yas" style="text;html=1;align=center;verticalAlign=middle;resizable=0;points=[];autosize=1;strokeColor=none;fillColor=none;" parent="1" vertex="1">
          <mxGeometry x="770" y="410" width="40" height="30" as="geometry" />
        </mxCell>
        <mxCell id="CMagMuN_N-w_v8r2wmOn-25" value="No" style="text;html=1;align=center;verticalAlign=middle;resizable=0;points=[];autosize=1;strokeColor=none;fillColor=none;" parent="1" vertex="1">
          <mxGeometry x="970" y="408" width="40" height="30" as="geometry" />
        </mxCell>
      </root>
    </mxGraphModel>
  </diagram>
</mxfile>
